<?xml version="1.0" encoding="utf-8"?>
<!-- Generator: Adobe Illustrator 22.1.0, SVG Export Plug-In . SVG Version: 6.00 Build 0)  -->
<svg version="1.1" id="Capa_1" xmlns="http://www.w3.org/2000/svg" xmlns:xlink="http://www.w3.org/1999/xlink" x="0px" y="0px"
	 viewBox="0 0 512 512" style="enable-background:new 0 0 512 512;" xml:space="preserve">
<style type="text/css">
	.st0{fill:#F66342;}
</style>
<g>
	<g>
		<path class="st0" d="M512,409.6v-17.1c0-9.4-7.6-17.1-17.1-17.1h-44.2c1-2.7,1.5-5.6,1.6-8.5V213.3c0-6.3-2.4-12.4-6.7-17.1
			c4.3-4.7,6.6-10.7,6.7-17.1V25.6c0-14.1-11.5-25.6-25.6-25.6H273.1c-6.3,0-12.4,2.4-17.1,6.7C251.3,2.4,245.3,0,238.9,0H85.3
			C71.2,0,59.7,11.5,59.7,25.6v153.6c0,6.3,2.4,12.4,6.7,17.1c-4.3,4.7-6.6,10.7-6.7,17.1v153.6c0,2.9,0.6,5.8,1.6,8.5H17.1
			c-9.4,0-17.1,7.6-17.1,17.1v17.1c0,9.4,7.6,17.1,17.1,17.1v34.1c-9.4,0-17.1,7.6-17.1,17.1v17.1c0,9.4,7.6,17.1,17.1,17.1h477.9
			c9.4,0,17.1-7.6,17.1-17.1v-17.1c0-9.4-7.6-17.1-17.1-17.1v-34.1C504.4,426.7,512,419,512,409.6z M264.5,25.6
			c0-4.7,3.8-8.5,8.5-8.5h153.6c4.7,0,8.5,3.8,8.5,8.5v8.5H264.5V25.6z M264.5,51.2h114.7l-114.7,70.1L264.5,51.2L264.5,51.2z
			 M264.5,141.3L412,51.2h23.2v12.3l-147.5,90.1h-23.2L264.5,141.3L264.5,141.3z M435.2,83.5v70.1H320.5L435.2,83.5z M264.5,170.7
			h170.7v8.5c0,4.7-3.8,8.5-8.5,8.5H273.1c-4.7,0-8.5-3.8-8.5-8.5L264.5,170.7L264.5,170.7z M264.5,213.3c0-4.7,3.8-8.5,8.5-8.5
			h153.6c4.7,0,8.5,3.8,8.5,8.5v8.5H264.5V213.3z M264.5,238.9h114.7L264.5,309L264.5,238.9L264.5,238.9z M264.5,329.1L412,238.9
			h23.2v12.3l-147.5,90.1h-23.2L264.5,329.1L264.5,329.1z M435.2,271.2v70.1H320.5L435.2,271.2z M264.5,358.4h170.7v8.5
			c0,4.7-3.8,8.5-8.5,8.5H273.1c-4.7,0-8.5-3.8-8.5-8.5L264.5,358.4L264.5,358.4z M76.8,25.6c0-4.7,3.8-8.5,8.5-8.5h153.6
			c4.7,0,8.5,3.8,8.5,8.5v8.5H76.8V25.6z M76.8,51.2h114.7L76.8,121.3V51.2z M76.8,141.3l147.5-90.1h23.2v12.3L100,153.6H76.8V141.3
			z M247.5,83.5v70.1H132.7L247.5,83.5z M76.8,170.7h170.7v8.5c0,4.7-3.8,8.5-8.5,8.5H85.3c-4.7,0-8.5-3.8-8.5-8.5L76.8,170.7
			L76.8,170.7z M76.8,213.3c0-4.7,3.8-8.5,8.5-8.5h153.6c4.7,0,8.5,3.8,8.5,8.5v8.5H76.8V213.3z M76.8,238.9h114.7L76.8,309V238.9z
			 M76.8,329.1l147.5-90.1h23.2v12.3L100,341.3H76.8V329.1z M247.5,271.2v70.1H132.7L247.5,271.2z M76.8,358.4h170.7v8.5
			c0,4.7-3.8,8.5-8.5,8.5H85.3c-4.7,0-8.5-3.8-8.5-8.5L76.8,358.4L76.8,358.4z M494.9,494.9H17.1v-17.1h477.9L494.9,494.9z
			 M34.1,460.8v-34.1h51.2v34.1H34.1z M102.4,460.8v-34.1h110.9v34.1H102.4z M230.4,460.8v-34.1h51.2v34.1H230.4z M298.7,460.8
			v-34.1h110.9v34.1H298.7z M426.7,460.8v-34.1h51.2v34.1H426.7z M486.4,409.6H17.1v-17.1h477.9l0,17.1H486.4z"/>
	</g>
</g>
</svg>
