<?xml version="1.0" encoding="utf-8"?>
<!-- Generator: Adobe Illustrator 22.1.0, SVG Export Plug-In . SVG Version: 6.00 Build 0)  -->
<svg version="1.1" id="Layer_1" xmlns="http://www.w3.org/2000/svg" xmlns:xlink="http://www.w3.org/1999/xlink" x="0px" y="0px"
	 viewBox="0 0 512 512" style="enable-background:new 0 0 512 512;" xml:space="preserve">
<style type="text/css">
	.st0{fill:#F66342;}
</style>
<g>
	<g>
		<path class="st0" d="M87.9,328.3c-26.4,0-47.9,21.5-47.9,47.9s21.5,47.9,47.9,47.9c26.4,0,47.9-21.5,47.9-47.9
			C135.8,349.8,114.3,328.3,87.9,328.3z M87.9,408.4c-17.7,0-32.2-14.4-32.2-32.2c0-17.7,14.4-32.2,32.2-32.2
			c17.7,0,32.2,14.4,32.2,32.2S105.6,408.4,87.9,408.4z"/>
	</g>
</g>
<g>
	<g>
		<polygon class="st0" points="95.8,368.3 95.8,359.9 80.1,359.9 80.1,368.3 71.7,368.3 71.7,384 80.1,384 80.1,392.4 95.8,392.4 
			95.8,384 104.2,384 104.2,368.3 		"/>
	</g>
</g>
<g>
	<g>
		<polygon class="st0" points="304.1,408.1 304.1,399.7 288.4,399.7 288.4,408.1 280.1,408.1 280.1,423.8 288.4,423.8 288.4,432.2 
			304.1,432.2 304.1,423.8 312.5,423.8 312.5,408.1 		"/>
	</g>
</g>
<g>
	<g>
		<rect x="183.7" y="400.7" class="st0" width="56.5" height="15.7"/>
	</g>
</g>
<g>
	<g>
		<path class="st0" d="M495.7,336.3v-80.1v-15.7v-96.3H391.9V56.1h-39.7V184h-21.7c-7.2-38.6-22.1-75.4-44.1-108.5l-2.3-3.5H87.4
			v15.7h188.2c29,45,44.3,97.1,44.3,150.9v50.1H206.2c1-2.7,1.6-5.6,1.6-8.6c0-13.2-10.7-23.9-23.9-23.9h-16.2v-56.2
			c0-13.2-10.7-23.9-23.9-23.9s-23.9,10.7-23.9,23.9v88.6h-8.6V96.1H95.8v127.7H63.3v-31.4H31.9v15.7h15.7v15.7H23.6v92.6
			C9,332.1,0,353.1,0,376.2c0,48.5,39.4,87.9,87.9,87.9c18.9,0,36.4-6,50.8-16.2h121.5c8.8,9.9,21.6,16.2,35.9,16.2
			c26.4,0,47.9-21.5,47.9-47.9c0-10-3.1-19.3-8.3-27v-53.4H165.9c-1.3-2.5-2.7-5-4.3-7.3h173.9v-15.7H148.7c-3.2-3-6.6-5.8-10.1-8.4
			h197v-65.8c0-2.2,0-4.3-0.1-6.5h16.7V376h45.4l-24.8,24.7h-20.5v15.7h27l40.5-40.4H512v-39.7L495.7,336.3L495.7,336.3z
			 M39.3,239.5h56.5v49.1c-2.6-0.2-5.2-0.4-7.9-0.4c-18,0-34.7,5.4-48.6,14.7C39.3,303,39.3,239.5,39.3,239.5z M296,448.4
			c-17.7,0-32.2-14.4-32.2-32.2c0-17.7,14.4-32.2,32.2-32.2c17.7,0,32.2,14.4,32.2,32.2C328.2,433.9,313.8,448.4,296,448.4z
			 M175.8,376.2c0-8.6-1.3-16.8-3.5-24.6h147.6v23.2c-7-4-15.2-6.4-23.8-6.4c-26.4,0-47.9,21.5-47.9,47.9c0,5.6,1,11,2.7,15.9h-95.3
			C168.2,416.9,175.8,397.4,175.8,376.2z M160.1,376.2c0,39.8-32.4,72.2-72.2,72.2S15.7,416,15.7,376.2S48.1,304,87.9,304
			S160.1,336.4,160.1,376.2z M184,288.3h-48.2v-88.2c0-4.5,3.7-8.2,8.2-8.2c4.5,0,8.2,3.7,8.2,8.2V272H184c4.5,0,8.2,3.7,8.2,8.2
			C192.1,284.6,188.5,288.3,184,288.3z M352.2,216.5h-17.5c-0.4-5.6-1-11.2-1.7-16.8h19.2V216.5z M431.9,159.9h8.4v8.4h-8.4V159.9z
			 M392.1,159.9h24.1V184H456v-24.1H480v80.6h-87.9V159.9z M440.3,256.3v8.4h-8.4v-8.4H440.3z M392.1,256.3h24.1v24.1H456v-24.1H480
			v32h-41.1V328H480v7.8h-87.9V256.3z M478.9,304v8.3h-24.3V304H478.9z M496.3,360.3H367.9V71.9h8.3V352h120.1L496.3,360.3
			L496.3,360.3z"/>
	</g>
</g>
<g>
	<g>
		<polygon class="st0" points="271.7,264.6 271.7,236.9 259.1,224.1 270.5,212.7 259.4,201.6 225.5,235.5 236.6,246.6 248,235.2 
			256,243.3 256,280.3 312.5,280.3 312.5,264.6 		"/>
	</g>
</g>
<g>
	<g>
		<rect x="47.6" y="247.9" class="st0" width="15.7" height="24.1"/>
	</g>
</g>
<g>
	<g>
		<rect x="71.7" y="247.9" class="st0" width="15.7" height="24.1"/>
	</g>
</g>
<g>
	<g>
		<rect x="7.9" y="192.4" class="st0" width="15.7" height="15.7"/>
	</g>
</g>
<g>
	<g>
		<rect x="400.5" y="216.5" class="st0" width="31.4" height="15.7"/>
	</g>
</g>
<g>
	<g>
		<rect x="87.4" y="47.9" class="st0" width="201" height="15.7"/>
	</g>
</g>
</svg>
