<?xml version="1.0" encoding="utf-8"?>
<!-- Generator: Adobe Illustrator 21.0.2, SVG Export Plug-In . SVG Version: 6.00 Build 0)  -->
<svg version="1.1" id="Capa_1" xmlns="http://www.w3.org/2000/svg" xmlns:xlink="http://www.w3.org/1999/xlink" x="0px" y="0px"
	 viewBox="0 0 123 123" style="enable-background:new 0 0 123 123;" xml:space="preserve">
<style type="text/css">
	.st0{fill:#FFFFFF;}
</style>
<path class="st0" d="M111.9,92l-45.3,17.5V49.5l45.3-17.4V92z M11.1,92v-60l45.3,17.3v60.2L11.1,92z M61.5,11.2l40.7,13.6L61.5,40.3
	L20.8,24.9L61.5,11.2z M117.4,19.6L63,1.2c-1.3-0.2-2.3-0.2-3.3,0L5.3,19.7C0.9,21,1,24.5,1,24.6v71c0,2,1.3,3.9,3.3,4.6l55.4,21.3
	c1,0.4,3.1,0.2,3.6,0l55.4-21.3c2-0.8,3.3-2.6,3.3-4.6v-71C122,23.1,121,20.1,117.4,19.6z"/>
</svg>
