<?xml version="1.0" encoding="utf-8"?>
<!-- Generator: Adobe Illustrator 21.0.2, SVG Export Plug-In . SVG Version: 6.00 Build 0)  -->
<svg version="1.1" id="Capa_1" xmlns="http://www.w3.org/2000/svg" xmlns:xlink="http://www.w3.org/1999/xlink" x="0px" y="0px"
	 viewBox="0 0 112 123" style="enable-background:new 0 0 112 123;" xml:space="preserve">
<style type="text/css">
	.st0{fill:#FFFFFF;}
</style>
<path class="st0" d="M23,28.5h66v21.8L56,39.5L23,50.3V28.5z M11.7,100H12c8.8,0,16.6-4.8,22-11c5.4,6.2,13.2,11,22,11
	c8.8,0,16.6-4.8,22-11c5.4,6.2,13.2,11,22,11h0.3l10.4-36.7c0.4-1.4,0.3-3-0.3-4.3s-1.9-2.3-3.3-2.8l-7-2.3V28.5c0-6.1-5-11-11-11
	H72.5V1h-33v16.5H23c-6.1,0-11,4.9-11,11v25.4l-7.1,2.3c-1.4,0.4-2.6,1.4-3.3,2.8s-0.8,2.9-0.3,4.3L11.7,100z M100,111
	c-7.6,0-15.3-2.6-22-7.3c-13.4,9.4-30.6,9.4-44,0c-6.7,4.7-14.4,7.3-22,7.3H1v11h11c7.6,0,15.1-1.9,22-5.4c13.9,7.1,30.1,7.1,44,0
	c6.9,3.6,14.4,5.4,22,5.4h11v-11H100z"/>
</svg>
