<?xml version="1.0" encoding="utf-8"?>
<!-- Generator: Adobe Illustrator 22.1.0, SVG Export Plug-In . SVG Version: 6.00 Build 0)  -->
<svg version="1.1" id="Capa_1" xmlns="http://www.w3.org/2000/svg" xmlns:xlink="http://www.w3.org/1999/xlink" x="0px" y="0px"
	 viewBox="0 0 512 512" style="enable-background:new 0 0 512 512;" xml:space="preserve">
<style type="text/css">
	.st0{fill:#F66342;}
</style>
<g>
	<g>
		<path class="st0" d="M480,256H32c-17.7,0-32,14.3-32,32v53.3c0,5.9,4.8,10.7,10.7,10.7h42.7v-21.3h-32V288
			c0-5.9,4.8-10.7,10.7-10.7h448c5.9,0,10.7,4.8,10.7,10.7v42.7h-32V352h42.7c5.9,0,10.7-4.8,10.7-10.7V288
			C512,270.3,497.7,256,480,256z"/>
	</g>
</g>
<g>
	<g>
		<path class="st0" d="M256,298.7c-23.6,0-42.7,19.1-42.7,42.7S232.4,384,256,384s42.7-19.1,42.7-42.7
			C298.7,317.8,279.6,298.7,256,298.7z M256,362.7c-11.8,0-21.3-9.6-21.3-21.3S244.2,320,256,320s21.3,9.6,21.3,21.3
			C277.3,353.1,267.8,362.7,256,362.7z"/>
	</g>
</g>
<g>
	<g>
		<path class="st0" d="M394.7,298.7c-23.6,0-42.7,19.1-42.7,42.7s19.1,42.7,42.7,42.7s42.7-19.1,42.7-42.7
			C437.3,317.8,418.2,298.7,394.7,298.7z M394.7,362.7c-11.8,0-21.3-9.6-21.3-21.3s9.6-21.3,21.3-21.3s21.3,9.5,21.3,21.3
			S406.4,362.7,394.7,362.7z"/>
	</g>
</g>
<g>
	<g>
		<path class="st0" d="M117.3,298.7c-23.6,0-42.7,19.1-42.7,42.7S93.8,384,117.3,384s42.7-19.1,42.7-42.7
			C160,317.8,140.9,298.7,117.3,298.7z M117.3,362.7c-11.8,0-21.3-9.6-21.3-21.3c0-11.8,9.6-21.3,21.3-21.3s21.3,9.6,21.3,21.3
			C138.7,353.1,129.1,362.7,117.3,362.7z"/>
	</g>
</g>
<g>
	<g>
		<rect x="288" y="330.7" class="st0" width="42.7" height="21.3"/>
	</g>
</g>
<g>
	<g>
		<rect x="181.3" y="330.7" class="st0" width="42.7" height="21.3"/>
	</g>
</g>
<g>
	<g>
		<path class="st0" d="M469.3,373.3v32H42.7v-32H21.3V416c0,5.9,4.8,10.7,10.7,10.7h448c5.9,0,10.7-4.8,10.7-10.7v-42.7H469.3z"/>
	</g>
</g>
<g>
	<g>
		<path class="st0" d="M224,149.3H96c-11.8,0-21.3,9.6-21.3,21.3v96H96v-96h128v96h21.3v-96C245.3,158.9,235.8,149.3,224,149.3z"/>
	</g>
</g>
<g>
	<g>
		<path class="st0" d="M170.7,181.3L170.7,181.3v21.3h-21.3v-21.3H128v32c0,5.9,4.8,10.7,10.7,10.7h42.7c5.9,0,10.7-4.8,10.7-10.7
			v-32L170.7,181.3L170.7,181.3z"/>
	</g>
</g>
<g>
	<g>
		<path class="st0" d="M352,42.7H224c-11.8,0-21.3,9.6-21.3,21.3v96H224V64h128v96h21.3V64C373.3,52.2,363.8,42.7,352,42.7z"/>
	</g>
</g>
<g>
	<g>
		<path class="st0" d="M298.7,74.7V96h-21.3V74.7H256v32c0,5.9,4.8,10.7,10.7,10.7h42.7c5.9,0,10.7-4.8,10.7-10.7v-32H298.7z"/>
	</g>
</g>
<g>
	<g>
		<path class="st0" d="M416,149.3H288c-11.8,0-21.3,9.6-21.3,21.3v96H288v-96h128v96h21.3v-96C437.3,158.9,427.8,149.3,416,149.3z"
			/>
	</g>
</g>
<g>
	<g>
		<path class="st0" d="M362.7,181.3L362.7,181.3v21.3h-21.3v-21.3H320v32c0,5.9,4.8,10.7,10.7,10.7h42.7c5.9,0,10.7-4.8,10.7-10.7
			v-32L362.7,181.3L362.7,181.3z"/>
	</g>
</g>
<g>
	<g>
		<path class="st0" d="M437.3,416v32H74.7v-32H53.3v42.7c0,5.9,4.8,10.7,10.7,10.7h384c5.9,0,10.7-4.8,10.7-10.7V416H437.3z"/>
	</g>
</g>
<g>
	<g>
		<rect y="448" class="st0" width="512" height="21.3"/>
	</g>
</g>
</svg>
