<?xml version="1.0" encoding="utf-8"?>
<!-- Generator: Adobe Illustrator 22.1.0, SVG Export Plug-In . SVG Version: 6.00 Build 0)  -->
<svg version="1.1" id="Capa_1" xmlns="http://www.w3.org/2000/svg" xmlns:xlink="http://www.w3.org/1999/xlink" x="0px" y="0px"
	 viewBox="0 0 480 480" style="enable-background:new 0 0 480 480;" xml:space="preserve">
<style type="text/css">
	.st0{fill:#F66342;}
</style>
<g>
	<g>
		<path class="st0" d="M474.2,288.3c-0.7-0.2-1.5-0.3-2.2-0.3h-40v-56c0-4.4-3.6-8-8-8h-40v-56c0-4.4-3.6-8-8-8H216
			c-4.4,0-8,3.6-8,8v56h-24c-4.4,0-8,3.6-8,8v56h-16V152c0-4.4-3.6-8-8-8h-8v-32h144v16h-16c-4.4,0-8,3.6-8,8s3.6,8,8,8h24
			c4.4,0,8-3.6,8-8V72c0-4.4-3.6-8-8-8H104c-4.4,0-8,3.6-8,8v72H56c-4.4,0-8,3.6-8,8v136H8c-4.4,0-8,3.6-8,8c0,0.7,0.1,1.5,0.3,2.2
			l32,112c1,3.4,4.1,5.8,7.7,5.8h400c3.6,0,6.7-2.4,7.7-5.8l32-112C480.9,294,478.4,289.5,474.2,288.3z M144,80h144v16H144V80z
			 M416,240v48H272v-48L416,240L416,240z M224,176h144v48H224V176z M192,240h64v48h-64V240z M112,80h16v64h-16V80z M64,160h80v128
			H64C64,288,64,160,64,160z M434,400H46l-9.1-32h406.2L434,400z M447.7,352H32.3l-13.7-48h442.8L447.7,352z"/>
	</g>
</g>
<g>
	<g>
		<rect x="80" y="176" class="st0" width="16" height="16"/>
	</g>
</g>
<g>
	<g>
		<rect x="112" y="176" class="st0" width="16" height="16"/>
	</g>
</g>
<g>
	<g>
		<path class="st0" d="M424,320h-16c-4.4,0-8,3.6-8,8s3.6,8,8,8h16c4.4,0,8-3.6,8-8S428.4,320,424,320z"/>
	</g>
</g>
<g>
	<g>
		<path class="st0" d="M376,320h-16c-4.4,0-8,3.6-8,8s3.6,8,8,8h16c4.4,0,8-3.6,8-8S380.4,320,376,320z"/>
	</g>
</g>
</svg>
