<?xml version="1.0" encoding="utf-8"?>
<!-- Generator: Adobe Illustrator 21.0.2, SVG Export Plug-In . SVG Version: 6.00 Build 0)  -->
<svg version="1.1" id="Capa_1" xmlns="http://www.w3.org/2000/svg" xmlns:xlink="http://www.w3.org/1999/xlink" x="0px" y="0px"
	 viewBox="0 0 119 123" style="enable-background:new 0 0 119 123;" xml:space="preserve">
<style type="text/css">
	.st0{enable-background:new    ;}
	.st1{fill:#FFFFFF;}
</style>
<g class="st0">
	<path class="st1" d="M1.8,69l7.9-0.8c0.5,2.6,1.4,4.6,2.9,5.8c1.4,1.2,3.4,1.9,5.9,1.9c2.6,0,4.6-0.6,5.9-1.7c1.3-1.1,2-2.4,2-3.9
		c0-0.9-0.3-1.8-0.8-2.4c-0.6-0.7-1.5-1.2-2.9-1.7c-0.9-0.3-3.1-0.9-6.5-1.7c-4.3-1.1-7.4-2.4-9.1-4c-2.5-2.2-3.7-4.9-3.7-8.1
		c0-2,0.6-3.9,1.7-5.7c1.2-1.8,2.8-3.1,5-4.1c2.2-0.9,4.8-1.4,7.9-1.4c5,0,8.8,1.1,11.4,3.3c2.5,2.2,3.9,5.1,4,8.8l-8.1,0.4
		c-0.3-2.1-1.1-3.5-2.2-4.4C21.7,48.4,20,48,17.7,48c-2.3,0-4.2,0.5-5.5,1.4c-0.9,0.6-1.3,1.4-1.3,2.5c0,0.9,0.4,1.8,1.2,2.4
		c1,0.9,3.5,1.7,7.4,2.7s6.8,1.9,8.7,2.9s3.4,2.3,4.4,4.1c1.1,1.7,1.6,3.8,1.6,6.4c0,2.3-0.6,4.4-1.9,6.4c-1.3,2-3.1,3.5-5.4,4.5
		c-2.3,1-5.2,1.5-8.7,1.5c-5.1,0-9-1.2-11.7-3.5C3.9,76.9,2.3,73.5,1.8,69z"/>
	<path class="st1" d="M77.3,82h-8.8L65,72.9H49L45.6,82h-8.6L52.7,42h8.6L77.3,82z M62.4,66.2l-5.5-14.9l-5.4,14.9H62.4z"/>
	<path class="st1" d="M100.2,67.3v-6.7h17.4v16c-1.7,1.6-4.1,3.1-7.4,4.3s-6.5,1.9-9.8,1.9c-4.2,0-7.8-0.9-11-2.6
		c-3.1-1.8-5.5-4.3-7-7.5s-2.3-6.8-2.3-10.7c0-4.2,0.9-7.9,2.6-11.1s4.3-5.7,7.7-7.5c2.6-1.3,5.8-2,9.6-2c5,0,8.9,1,11.7,3.1
		c2.8,2.1,4.6,5,5.4,8.6l-8,1.5c-0.6-2-1.6-3.5-3.2-4.7c-1.6-1.1-3.5-1.7-5.8-1.7c-3.5,0-6.3,1.1-8.4,3.4c-2.1,2.2-3.1,5.6-3.1,10
		c0,4.8,1.1,8.3,3.2,10.7c2.1,2.4,4.9,3.6,8.3,3.6c1.7,0,3.4-0.3,5.1-1s3.2-1.5,4.4-2.4v-5.1H100.2z"/>
</g>
</svg>
