<?xml version="1.0" encoding="utf-8"?>
<!-- Generator: Adobe Illustrator 22.1.0, SVG Export Plug-In . SVG Version: 6.00 Build 0)  -->
<svg version="1.1" id="Capa_1" xmlns="http://www.w3.org/2000/svg" xmlns:xlink="http://www.w3.org/1999/xlink" x="0px" y="0px"
	 viewBox="0 0 512 512" style="enable-background:new 0 0 512 512;" xml:space="preserve">
<style type="text/css">
	.st0{fill:#F66342;}
</style>
<g>
	<g>
		<g>
			<path class="st0" d="M470,338.3L470,338.3l-36.7,12.2c-3.8-11.4-12.7-20.4-24.2-24.4c-3.3-21.8-22.7-37.5-44.7-36.2
				c-14.2-22.9-40-36-66.8-34c-2.9-11.4-11.5-20.5-22.6-24.1c8-26,22.2-49.6,41.5-68.7c1,1.2,2,2.4,3.1,3.5
				c17.2,17.5,40.7,27.5,65.2,27.6c1.7,0,3.5-0.1,5.2-0.2c22.1-1,42.7-11.7,56.1-29.3c37.1-48.9,64.5-147.1,65.6-151.2
				c0.7-2.4,0.3-4.9-1.1-7c-1.4-2.1-3.6-3.4-6-3.7c-5-0.7-123.9-15.6-183.3,34.6c-4.2,3.5-8,7.5-11.4,11.9
				c-23.4-6.4-47.8-8.4-71.9-5.8c-2.5,0.3-4.8,1.7-6.2,3.8c-1.4,2.1-1.8,4.8-1,7.2c0.6,1.8,14.1,45.5,32.8,67.4
				c8.3,9.4,20.2,14.6,32.7,14.4c1.2,0,2.5-0.1,3.7-0.2c1.8,4.4,3.9,8.7,6.3,12.8c-23.2,22.5-40,50.8-48.6,82
				c-8.1,1.7-15.3,6.3-20.3,12.8c-23.5-10.4-51-4.5-68.2,14.5c-5-1.7-10.3-2.5-15.6-2.5c-25,0-46.3,18.1-50.4,42.7H87.4
				c-7.1-10.7-19.1-17.1-31.9-17.1H38.4C17.2,281.4,0,298.5,0,319.7v153.6c0,21.2,17.2,38.4,38.4,38.4h17.1c8.7,0,17.1-3,23.8-8.5
				h221.9c12.5,0,24.8-3.4,35.5-10l160-97.4c13.9-8.5,19.2-26,12.3-40.7C502.2,340.4,485.4,333.2,470,338.3z M310.2,96.9
				c0.5-17.9,8.5-34.7,22-46.5c32.7-27.6,88.2-33,126.9-33c13.8,0,25.5,0.7,33.3,1.3c-7.9,26.1-31.3,98.1-59.9,135.7
				c-10.5,13.6-26.4,21.9-43.6,22.6c-21.4,1.1-42.2-7-57.1-22.3c-1.1-1.1-2.1-2.3-3.1-3.5c17.9-16.2,37.7-30.1,59-41.5
				c4.2-2.1,6-7.2,3.9-11.4s-7.2-6-11.4-3.9c-22.1,11.5-42.7,25.7-61.3,42.3C312.6,124.5,309.6,110.7,310.2,96.9z M293.2,96.1
				c-0.3,7.7,0.3,15.5,1.9,23.1c-7-0.1-13.7-3.1-18.5-8.3c-11.2-15.6-20-32.9-26-51.2c16.9-1,33.8,0.6,50.3,4.7
				C296.3,74.4,293.7,85.1,293.2,96.1z M76.8,473.3c0,11.8-9.6,21.3-21.3,21.3H38.4c-11.8,0-21.3-9.6-21.3-21.3V319.7
				c0-11.8,9.6-21.3,21.3-21.3h17.1c11.8,0,21.3,9.6,21.3,21.3V473.3z M153.6,272.8c5,0,10,1.2,14.6,3.4c3.7,1.8,8.2,0.6,10.6-2.7
				c13.1-18.4,38.3-23.2,57.4-11.1c2.2,1.4,4.8,1.7,7.3,0.9s4.4-2.7,5.3-5.1c2.4-6.4,8.4-10.7,15.2-10.9c0.2,0,0.5,0.1,0.7,0.1
				c0.2,0,0.4-0.1,0.6-0.1c9,0.3,16.2,7.5,16.5,16.5c0,0.2-0.1,1-0.1,1.3c-0.1,2.6,0.9,5.2,2.9,6.9c2,1.7,4.7,2.4,7.3,1.9
				c3.7-0.8,7.4-1.1,11.2-1.1c20.8,0,39.9,11.7,49.4,30.2c1.8,3.4,5.6,5.3,9.4,4.5c7.5-1.5,15.2,0.3,21.2,5.1s9.5,11.9,9.7,19.6
				c0,0.3,0,0.6,0,0.8c0,4.2,3.1,7.8,7.3,8.4c8,1.2,14.7,6.8,17.2,14.5l-105,35c-2.6,0.9-5.3,1.3-8.1,1.3H299
				c4.1-11.1,2.9-23.5-3.2-33.6l-0.8-1.3c-9.3-15.4-25.9-24.8-43.9-24.9h-44.6c-15.7,0-31-5.4-43.3-15.2
				c-12.3-9.8-27.1-16.1-42.8-18.1C124,283.8,137.8,272.8,153.6,272.8z M494.7,371.4c-0.8,4.1-3.3,7.7-6.9,9.9l-160,97.4
				c-8,4.9-17.2,7.5-26.6,7.5H91.5c1.5-4.1,2.3-8.4,2.4-12.8V319.7c-0.1-1.4-0.2-2.9-0.4-4.3h15.8c15.7,0,31,5.4,43.3,15.2
				c15.3,12.2,34.4,18.9,54,18.9h44.6c12,0,23.1,6.3,29.3,16.6l0.8,1.3c4.7,7.8,4.2,17.6-1.3,24.8h-51.9c-16.8,0-33.3,5-47.3,14.3
				l-6.3,4.2c-2.6,1.7-4,4.6-3.8,7.7c0.2,3.1,2,5.8,4.7,7.1c2.7,1.4,6,1.1,8.5-0.6l6.3-4.2c11.2-7.5,24.4-11.5,37.9-11.5h75.9
				c4.6,0,9.1-0.7,13.5-2.2l108.9-36.3c0.1,0,0.3,0.1,0.4,0.1c1.9,0,3.8-0.7,5.2-2l43.5-14.5c6.1-2,12.8,0.1,16.6,5.2
				C494.5,363.1,495.5,367.3,494.7,371.4z"/>
			<path class="st0" d="M195,306.8c4.6,0.9,9.1-2,10.1-6.7c1.2-6,6.5-10.2,12.5-10.2c2.8,0,5.5,0.9,7.7,2.6c3.8,2.8,9.1,2,11.9-1.7
				s2.1-9.1-1.7-11.9c-5.2-3.9-11.5-6-17.9-6c-14.2,0-26.4,10-29.3,23.9C187.4,301.3,190.4,305.8,195,306.8z"/>
			<path class="st0" d="M286.3,309.6c2.7,1.4,6,1.2,8.5-0.5l0,0c5.1-3.3,11.8-2.6,16.1,1.6c2,2,3.2,4.5,3.6,7.2
				c0.6,4.2,4.2,7.3,8.4,7.3c0.4,0,0.8,0,1.2-0.1c4.7-0.7,7.9-5,7.2-9.7c-1.5-10.1-8-18.8-17.3-23s-20.2-3.3-28.7,2.3
				c-2.5,1.7-4,4.6-3.8,7.6C281.8,305.5,283.6,308.2,286.3,309.6z"/>
		</g>
	</g>
</g>
</svg>
