<?xml version="1.0" encoding="utf-8"?>
<!-- Generator: Adobe Illustrator 21.0.2, SVG Export Plug-In . SVG Version: 6.00 Build 0)  -->
<svg version="1.1" id="Capa_1" xmlns="http://www.w3.org/2000/svg" xmlns:xlink="http://www.w3.org/1999/xlink" x="0px" y="0px"
	 viewBox="0 0 119 123" style="enable-background:new 0 0 119 123;" xml:space="preserve">
<style type="text/css">
	.st0{fill:#FFFFFF;}
</style>
<path class="st0" d="M59.6,82.7c-11.7,0-21.2-9.5-21.2-21.2c0-11.7,9.5-21.2,21.2-21.2c11.7,0,21.2,9.5,21.2,21.2
	C80.8,73.2,71.3,82.7,59.6,82.7z M104.6,67.4c0.2-1.9,0.4-3.9,0.4-5.9c0-2.1-0.2-4-0.4-5.9l12.8-10c1.1-0.9,1.5-2.5,0.7-3.9
	L106,20.8c-0.7-1.3-2.4-1.8-3.7-1.3l-15.1,6c-3.1-2.4-6.5-4.4-10.2-5.9l-2.3-16c-0.2-1.5-1.5-2.5-3-2.5H47.5c-1.5,0-2.8,1.1-3,2.5
	l-2.3,16c-3.7,1.5-7.1,3.6-10.2,5.9l-15.1-6c-1.4-0.5-3,0-3.7,1.3L1.2,41.7c-0.8,1.3-0.4,3,0.7,3.9l12.8,10
	c-0.2,1.9-0.4,3.9-0.4,5.9c0,2,0.2,4,0.4,5.9l-12.8,10c-1.1,0.9-1.5,2.5-0.7,3.9l12.1,20.9c0.7,1.3,2.4,1.8,3.7,1.3l15.1-6
	c3.1,2.4,6.5,4.4,10.2,5.9l2.3,16c0.2,1.5,1.5,2.5,3,2.5h24.2c1.5,0,2.8-1.1,3-2.5l2.3-16c3.7-1.5,7.1-3.6,10.2-5.9l15.1,6
	c1.4,0.5,3,0,3.7-1.3l12.1-20.9c0.7-1.3,0.4-3-0.7-3.9L104.6,67.4z"/>
</svg>
