<?xml version="1.0" encoding="utf-8"?>
<!-- Generator: Adobe Illustrator 21.0.2, SVG Export Plug-In . SVG Version: 6.00 Build 0)  -->
<svg version="1.1" id="Capa_1" xmlns="http://www.w3.org/2000/svg" xmlns:xlink="http://www.w3.org/1999/xlink" x="0px" y="0px"
	 viewBox="0 0 123 123" style="enable-background:new 0 0 123 123;" xml:space="preserve">
<style type="text/css">
	.st0{fill:#FFFFFF;}
</style>
<path class="st0" d="M107.6,94.6l-33.7,17v-11.1l33.7-16.8V94.6z M61.4,99L7.1,71.9l11.8-5.7v5.7c0,0.8,0.4,1.6,1.2,1.6l20.3,10.1
	l20.3,10.1c0.4,0.4,1.2,0.4,1.6,0l20.3-10.1l20.3-10.1c0.8-0.4,1.2-1.2,1.2-1.6v-5.7l11.8,5.7L61.4,99z M48.8,111.6l-33.7-17V83.6
	l33.7,16.8V111.6z M63.4,64.2V44.3l16.2-8.1V56L63.4,64.2z M63.4,71.5v-2.8l16.2-8.1v19.9l-16.2,8.1V71.5z M99.9,50.4v19.9
	l-16.2,8.1V58.5L99.9,50.4z M83.7,54V34.1L99.9,26v19.9L83.7,54z M122.2,71.9c0-0.4,0-0.4,0-0.8c0,0,0-0.4-0.4-0.4l-0.4-0.4
	L104,61.3V22.8v-0.4c0-0.4-0.4-0.8-0.8-0.8L82.9,11.4L62.6,1.3c-0.4-0.4-1.2-0.4-1.6,0L40.7,11.4L20.5,21.6c-1.2,0-1.2,0-1.6,0.4
	v0.4v38.9l-17,8.5l-0.4,0.4L1,70.6C1,71,1,71,1,71.5v19.1c0,0,0,0,0,0.4v0.4v0.4c0,0,0,0.4,0.4,0.4c0,0,0.4,0.4,0.8,0.6
	c-0.4-0.2-0.4-0.2,58.4,29.4c0.4,0.4,1.2,0.4,1.6,0c0,0,60-30.4,60-30.8v-0.4c0,0,0,0,0-0.4V71.9z"/>
</svg>
