<?xml version="1.0" encoding="iso-8859-1"?>
<!-- Generator: Adobe Illustrator 19.0.0, SVG Export Plug-In . SVG Version: 6.00 Build 0)  -->
<svg version="1.1" id="Capa_1" xmlns="http://www.w3.org/2000/svg" xmlns:xlink="http://www.w3.org/1999/xlink" x="0px" y="0px"
	 viewBox="0 0 512.002 512.002" style="enable-background:new 0 0 512.002 512.002;" xml:space="preserve">
<g>
	<g>
		<path d="M480,256.001H32c-17.673,0-32,14.327-32,32v53.333c0,5.891,4.776,10.667,10.667,10.667h42.667v-21.333h-32v-42.667
			c0-5.891,4.776-10.667,10.667-10.667h448c5.891,0,10.667,4.776,10.667,10.667v42.667h-32v21.333h42.667
			c5.891,0,10.667-4.776,10.667-10.667v-53.333C512,270.327,497.673,256.001,480,256.001z"/>
	</g>
</g>
<g>
	<g>
		<path d="M256,298.668c-23.564,0-42.667,19.103-42.667,42.667s19.103,42.666,42.667,42.666c23.564,0,42.667-19.102,42.667-42.667
			C298.667,317.77,279.564,298.668,256,298.668z M256,362.668c-11.782,0-21.333-9.551-21.333-21.333
			c0-11.782,9.551-21.333,21.333-21.333c11.782,0,21.333,9.551,21.333,21.333C277.333,353.116,267.782,362.668,256,362.668z"/>
	</g>
</g>
<g>
	<g>
		<path d="M394.667,298.668c-23.564,0-42.667,19.103-42.667,42.667s19.103,42.666,42.667,42.666
			c23.564,0,42.667-19.102,42.667-42.667C437.333,317.77,418.231,298.668,394.667,298.668z M394.667,362.668
			c-11.782,0-21.333-9.551-21.333-21.333c0-11.782,9.551-21.333,21.333-21.333c11.782,0,21.333,9.55,21.333,21.332
			C416,353.116,406.449,362.668,394.667,362.668z"/>
	</g>
</g>
<g>
	<g>
		<path d="M117.333,298.668c-23.564,0-42.667,19.103-42.667,42.667c0,23.564,19.102,42.667,42.667,42.667S160,364.899,160,341.334
			C160,317.77,140.897,298.668,117.333,298.668z M117.333,362.668c-11.782,0-21.333-9.551-21.333-21.333
			c0-11.783,9.551-21.334,21.333-21.334s21.333,9.551,21.333,21.333C138.667,353.116,129.115,362.668,117.333,362.668z"/>
	</g>
</g>
<g>
	<g>
		<rect x="288" y="330.671" width="42.667" height="21.333"/>
	</g>
</g>
<g>
	<g>
		<rect x="181.33" y="330.671" width="42.667" height="21.333"/>
	</g>
</g>
<g>
	<g>
		<path d="M469.333,373.334v32H42.667v-32H21.333v42.667c0,5.891,4.776,10.667,10.667,10.667h448
			c5.891,0,10.667-4.776,10.667-10.667v-42.667H469.333z"/>
	</g>
</g>
<g>
	<g>
		<path d="M224,149.334H96c-11.782,0-21.333,9.551-21.333,21.333v96H96v-96h128v96h21.333v-96
			C245.333,158.886,235.782,149.334,224,149.334z"/>
	</g>
</g>
<g>
	<g>
		<path d="M170.667,181.333L170.667,181.333v21.333h-21.333v-21.333H128v32c0,5.891,4.776,10.667,10.667,10.667h42.667
			c5.891,0,10.667-4.776,10.667-10.667v-32H170.667z"/>
	</g>
</g>
<g>
	<g>
		<path d="M352,42.668H224c-11.782,0-21.333,9.551-21.333,21.333v96H224v-96h128v96h21.333v-96
			C373.333,52.219,363.782,42.668,352,42.668z"/>
	</g>
</g>
<g>
	<g>
		<path d="M298.667,74.668v21.333h-21.333V74.668H256v32c0,5.891,4.776,10.667,10.667,10.667h42.667
			c5.891,0,10.667-4.776,10.667-10.667v-32H298.667z"/>
	</g>
</g>
<g>
	<g>
		<path d="M416,149.334H288c-11.782,0-21.333,9.551-21.333,21.333v96H288v-96h128v96h21.333v-96
			C437.333,158.886,427.782,149.334,416,149.334z"/>
	</g>
</g>
<g>
	<g>
		<path d="M362.667,181.333L362.667,181.333v21.333h-21.333v-21.333H320v32c0,5.891,4.776,10.667,10.667,10.667h42.667
			c5.891,0,10.667-4.776,10.667-10.667v-32H362.667z"/>
	</g>
</g>
<g>
	<g>
		<path d="M437.333,416.001v32H74.667v-32H53.333v42.667c0,5.891,4.776,10.667,10.667,10.667h384
			c5.891,0,10.667-4.776,10.667-10.667v-42.667H437.333z"/>
	</g>
</g>
<g>
	<g>
		<rect y="448.001" width="512" height="21.333"/>
	</g>
</g>
<g>
</g>
<g>
</g>
<g>
</g>
<g>
</g>
<g>
</g>
<g>
</g>
<g>
</g>
<g>
</g>
<g>
</g>
<g>
</g>
<g>
</g>
<g>
</g>
<g>
</g>
<g>
</g>
<g>
</g>
</svg>
