<?xml version="1.0" encoding="iso-8859-1"?>
<!-- Generator: Adobe Illustrator 19.0.0, SVG Export Plug-In . SVG Version: 6.00 Build 0)  -->
<svg version="1.1" id="Layer_1" xmlns="http://www.w3.org/2000/svg" xmlns:xlink="http://www.w3.org/1999/xlink" x="0px" y="0px"
	 viewBox="0 0 512 512" style="enable-background:new 0 0 512 512;" xml:space="preserve">
<g>
	<g>
		<path d="M87.9,328.31c-26.399,0-47.877,21.477-47.877,47.876s21.478,47.877,47.877,47.877c26.398,0,47.876-21.478,47.876-47.877
			C135.776,349.787,114.299,328.31,87.9,328.31z M87.9,408.358c-17.74,0-32.172-14.432-32.172-32.172
			c0-17.739,14.432-32.171,32.172-32.171c17.739,0,32.171,14.431,32.171,32.171S105.639,408.358,87.9,408.358z"/>
	</g>
</g>
<g>
	<g>
		<polygon points="95.798,368.287 95.798,359.911 80.093,359.911 80.093,368.287 71.717,368.287 71.717,383.992 80.093,383.992 
			80.093,392.367 95.798,392.367 95.798,383.992 104.174,383.992 104.174,368.287 		"/>
	</g>
</g>
<g>
	<g>
		<polygon points="304.145,408.072 304.145,399.696 288.44,399.696 288.44,408.072 280.065,408.072 280.065,423.777 288.44,423.777 
			288.44,432.152 304.145,432.152 304.145,423.777 312.521,423.777 312.521,408.072 		"/>
	</g>
</g>
<g>
	<g>
		<rect x="183.743" y="400.738" width="56.536" height="15.705"/>
	</g>
</g>
<g>
	<g>
		<path d="M495.741,336.314v-80.052v-15.705v-96.321H391.928V56.146h-39.719V184.02h-21.712
			c-7.23-38.621-22.128-75.444-44.114-108.521l-2.331-3.505H87.422v15.705h188.175c28.965,45.019,44.252,97.112,44.252,150.938
			v50.081H206.213c1.033-2.668,1.606-5.562,1.606-8.589c0-13.157-10.704-23.863-23.863-23.863h-16.162V200.08
			c0-13.157-10.704-23.863-23.862-23.863s-23.863,10.704-23.863,23.863v88.638h-8.568V96.075H95.798v127.73H63.342v-31.409H31.933
			v15.705h15.705v15.705h-24.08v92.579C8.955,332.085,0,353.104,0,376.185c0,48.468,39.432,87.901,87.901,87.901
			c18.914,0,36.437-6.025,50.792-16.228h121.453c8.779,9.941,21.605,16.228,35.88,16.228c26.399,0,47.877-21.478,47.877-47.876
			c0-9.998-3.084-19.286-8.346-26.972v-53.406H165.95c-1.307-2.517-2.729-4.962-4.265-7.329h173.869v-15.705H148.702
			c-3.164-3.036-6.551-5.836-10.139-8.376h196.991v-65.785c0-2.155-0.03-4.306-0.076-6.456h16.733v143.852h45.404l-24.788,24.71
			h-20.521v15.705h27.011l40.541-40.415H512v-39.719H495.741z M39.261,239.51h56.536v49.148c-2.604-0.233-5.235-0.373-7.897-0.373
			c-17.974,0-34.7,5.433-48.639,14.729V239.51z M296.024,448.38c-17.739,0-32.171-14.432-32.171-32.171
			c0-17.74,14.432-32.172,32.171-32.172c17.74,0,32.172,14.432,32.172,32.172C328.196,433.948,313.763,448.38,296.024,448.38z
			 M175.8,376.185c0-8.557-1.252-16.823-3.543-24.649h147.592v23.173c-7.022-4.048-15.155-6.376-23.826-6.376
			c-26.398,0-47.876,21.478-47.876,47.877c0,5.589,0.972,10.952,2.74,15.943h-95.261C168.221,416.94,175.8,397.433,175.8,376.185z
			 M160.095,376.185c0,39.809-32.387,72.196-72.196,72.196s-72.195-32.387-72.195-72.196s32.387-72.196,72.196-72.196
			S160.095,336.376,160.095,376.185z M183.958,288.285h-48.182V200.08c0-4.498,3.659-8.158,8.158-8.158
			c4.498,0,8.157,3.659,8.157,8.158v71.89h31.867c4.498,0,8.158,3.659,8.158,8.158C192.116,284.626,188.457,288.285,183.958,288.285
			z M352.209,216.476h-17.48c-0.418-5.612-0.998-11.196-1.731-16.752h19.211V216.476z M431.875,159.94h8.376v8.376h-8.376V159.94z
			 M392.09,159.94h24.08v24.08h39.785v-24.08h24.08v80.617H392.09V159.94z M440.251,256.261v8.376h-8.376v-8.376H440.251z
			 M392.09,256.261h24.08v24.08h39.785v-24.08h24.08v32.024h-41.11v39.719h41.11v7.827H392.09V256.261z M478.949,303.989v8.31
			H454.63v-8.31H478.949z M496.295,360.328H367.915V71.851h8.31v280.167h120.071V360.328z"/>
	</g>
</g>
<g>
	<g>
		<polygon points="271.689,264.637 271.689,236.872 259.063,224.131 270.529,212.665 259.424,201.561 225.462,235.523 
			236.567,246.627 247.958,235.236 255.984,243.335 255.984,280.342 312.521,280.342 312.521,264.637 		"/>
	</g>
</g>
<g>
	<g>
		<rect x="47.637" y="247.88" width="15.705" height="24.08"/>
	</g>
</g>
<g>
	<g>
		<rect x="71.717" y="247.88" width="15.705" height="24.08"/>
	</g>
</g>
<g>
	<g>
		<rect x="7.852" y="192.391" width="15.705" height="15.705"/>
	</g>
</g>
<g>
	<g>
		<rect x="400.466" y="216.471" width="31.409" height="15.705"/>
	</g>
</g>
<g>
	<g>
		<rect x="87.422" y="47.914" width="201.018" height="15.705"/>
	</g>
</g>
<g>
</g>
<g>
</g>
<g>
</g>
<g>
</g>
<g>
</g>
<g>
</g>
<g>
</g>
<g>
</g>
<g>
</g>
<g>
</g>
<g>
</g>
<g>
</g>
<g>
</g>
<g>
</g>
<g>
</g>
</svg>
