<?xml version="1.0" encoding="utf-8"?>
<!-- Generator: Adobe Illustrator 21.0.2, SVG Export Plug-In . SVG Version: 6.00 Build 0)  -->
<svg version="1.1" id="Capa_1" xmlns="http://www.w3.org/2000/svg" xmlns:xlink="http://www.w3.org/1999/xlink" x="0px" y="0px"
	 viewBox="0 0 800 268" style="enable-background:new 0 0 800 268;" xml:space="preserve">
<style type="text/css">
	.st0{fill:#FF633E;}
	.st1{fill:#FF6D55;}
	.st2{fill:#565455;}
</style>
<g>
	<g>
		<g>
			<path class="st0" d="M11.7,72.5l52.6,29.4c0.8,0.5,1.7,0.7,2.6,0.7c1.8,0,3.6-1,4.6-2.7c1.4-2.5,0.5-5.7-2-7.2L16.8,63.3
				c-2.5-1.4-5.7-0.5-7.2,2C8.3,67.9,9.2,71.1,11.7,72.5z"/>
		</g>
		<g>
			<path class="st0" d="M67.4,120.1L16.9,90.7c-2.5-1.5-5.7-0.6-7.2,1.9c-1.5,2.5-0.6,5.7,1.9,7.2l50.5,29.4
				c0.8,0.5,1.7,0.7,2.6,0.7c1.8,0,3.6-0.9,4.5-2.6C70.7,124.8,69.9,121.6,67.4,120.1z"/>
		</g>
		<g>
			<path class="st1" d="M276.5,70.7c-1.6-0.9-3.6-0.9-5.3,0L170,129v11.4c0.8,0,1.7-0.3,2.4-0.7l96.2-55.4V190L170,248.8v11.5
				c0.9,0,1.7-0.3,2.5-0.7l104.1-62c1.6-0.9,2.6-2.7,2.6-4.5V75.2C279.2,73.4,278.2,71.6,276.5,70.7z"/>
		</g>
		<g>
			<path class="st1" d="M216.7,45.7c2.5,1.4,5.7,0.5,7.2-2c1.4-2.5,0.5-5.7-2-7.2L172.4,8.6C171.7,8.2,170.8,8,170,8v11.4
				L216.7,45.7z"/>
		</g>
		<g>
			<path class="st0" d="M167,8.8l-98.8,62c-1.5,1-2.5,2.7-2.5,4.5c0,1.8,1,3.5,2.5,4.5l98.8,59.9c0.9,0.5,1.9,0.8,2.9,0.8V129
				l-0.1,0.1L81,75.2L170,19.3l0,0V8C169,7.9,167.9,8.2,167,8.8z"/>
		</g>
		<g>
			<path class="st0" d="M169.8,248.9L70,191v-40.1c0-2.3-1.4-4.2-3.5-4.9c-0.1-0.1-0.2-0.1-0.3-0.2L16.8,118c-2.5-1.4-5.7-0.5-7.2,2
				c-1.4,2.5-0.5,5.7,2,7.2l47.8,26.9v40c0,1.9,1,3.6,2.6,4.5l105.1,61c0.8,0.5,1.7,0.7,2.6,0.7c0.1,0,0.1,0,0.2,0v-11.5
				L169.8,248.9z"/>
		</g>
	</g>
</g>
<g>
	<path class="st2" d="M356.8,35.2c-1.8-1.5-3.8-2.5-5.9-3.2c-2.2-0.7-4.2-1-6.1-1c-2.8,0-5,0.6-6.7,1.8c-1.7,1.2-2.5,2.7-2.5,4.4
		c0,1.6,0.6,2.9,1.7,4.1c1.1,1.2,2.8,2.1,4.9,2.7l11.4,3.1c3.3,1,5.9,2.6,7.9,4.8c2,2.2,3,5.1,3,8.5c0,4-1.7,7.3-5.1,9.9
		c-3.4,2.6-7.9,3.9-13.5,3.9c-4.5,0-8.5-0.9-11.9-2.7c-3.4-1.8-6.2-4.3-8.5-7.5l5.9-4.3c2.1,2.7,4.4,4.6,6.8,5.7
		c2.5,1.1,5,1.6,7.5,1.6c3.5,0,6.3-0.6,8.4-1.9c2.1-1.3,3.1-2.9,3.1-4.8c0-1.5-0.5-2.9-1.6-3.9s-2.6-1.9-4.7-2.5l-10.7-3
		c-3.9-1.2-6.8-3-8.8-5.4c-2-2.4-3-5.2-3-8.3c0-3.9,1.5-7.1,4.6-9.6c3-2.5,7-3.7,11.8-3.7c3,0,6.2,0.6,9.4,1.8
		c3.2,1.2,6.2,2.9,8.8,5.2L356.8,35.2z"/>
	<path class="st2" d="M374.5,54.8V25.3h7.2v29.5c0,3.4,1.2,6.3,3.6,8.7c2.4,2.4,5.3,3.6,8.7,3.6c3.4,0,6.3-1.2,8.6-3.6
		c2.4-2.4,3.6-5.3,3.6-8.7V25.3h7.2v29.5c0,5.4-1.9,10-5.7,13.8c-3.8,3.8-8.4,5.7-13.7,5.7c-5.4,0-10-1.9-13.8-5.7
		S374.5,60.1,374.5,54.8z"/>
	<path class="st2" d="M433.6,25.3v47.5h-7.2V25.3H433.6z"/>
	<path class="st2" d="M455.2,32.5h-13v-7.2h33.1v7.2h-13v40.3h-7.2V32.5z"/>
	<path class="st2" d="M514.2,25.3v7.2h-23v13h17.3v7.2h-17.3v13h23v7.2H484V25.3H514.2z"/>
</g>
<g>
	<path class="st2" d="M378.4,96.8v12.5h-39.9v22.4h29.9v12.5h-29.9v22.4h39.9V179h-52.3V96.8H378.4z"/>
	<path class="st2" d="M404.1,96.8l22.1,30.4l22-30.4h15.5L434,137.8l29.8,41.2h-15.5l-22-30.4L404.1,179h-15.5l29.9-41.2l-29.9-41.1
		H404.1z"/>
	<path class="st2" d="M512,96.8c8.6,0,15.9,3,22,9.1c6.1,6.1,9.1,13.4,9.1,22c0,8.6-3,16-9.1,22.1c-6.1,6.1-13.4,9.1-22,9.1h-18.7
		V179h-12.5V96.8H512z M493.2,146.6H512c5.1,0,9.5-1.8,13.2-5.5c3.7-3.7,5.5-8.1,5.5-13.3c0-5.1-1.8-9.5-5.5-13.2
		c-3.7-3.7-8-5.5-13.2-5.5h-18.7V146.6z"/>
	<path class="st2" d="M632.5,107c8.5,8.5,12.8,18.8,12.8,30.8c0,12.1-4.3,22.4-12.8,30.9c-8.5,8.5-18.8,12.8-30.8,12.8
		c-12.1,0-22.4-4.3-30.9-12.8c-8.5-8.5-12.8-18.8-12.8-30.9c0-12,4.3-22.3,12.8-30.8c8.5-8.5,18.8-12.8,30.9-12.8
		C613.7,94.3,624,98.5,632.5,107z M601.7,106.7c-8.6,0-16,3-22.1,9.1c-6.1,6.1-9.1,13.4-9.1,22c0,8.6,3,16,9.1,22.1
		c6.1,6.1,13.4,9.1,22.1,9.1c8.6,0,15.9-3,22-9.1c6.1-6.1,9.1-13.4,9.1-22.1c0-8.6-3-15.9-9.1-22
		C617.6,109.8,610.2,106.7,601.7,106.7z"/>
	<path class="st2" d="M701.5,158.7c-1.7,0.3-3.4,0.4-5.2,0.4h-18.7V179h-12.5V96.8h31.2c8.6,0,15.9,3,22,9.1
		c6.1,6.1,9.1,13.4,9.1,22c0,8.6-3,16-9.1,22c-1.7,1.7-3.4,3.1-5.3,4.3l12.5,24.8h-13.9L701.5,158.7z M677.6,146.6h18.7
		c5.1,0,9.5-1.8,13.2-5.5c3.7-3.7,5.5-8.1,5.5-13.3c0-5.1-1.8-9.5-5.5-13.2c-3.7-3.7-8-5.5-13.2-5.5h-18.7V146.6z"/>
	<path class="st2" d="M755.2,109.2h-22.4V96.8H790v12.5h-22.4V179h-12.5V109.2z"/>
</g>
<g>
	<g>
		<g>
			<path class="st0" d="M336,209.8c2.7,0,5,1,6.9,2.9c1.9,1.9,2.9,4.2,2.9,6.9c0,2.7-1,5-2.9,6.9c-1.9,1.9-4.2,2.9-6.9,2.9h-5.9v6.3
				h-3.9v-25.9H336z M330.1,225.5h5.9c1.6,0,3-0.6,4.1-1.7c1.1-1.1,1.7-2.5,1.7-4.2c0-1.6-0.6-3-1.7-4.1c-1.1-1.1-2.5-1.7-4.1-1.7
				h-5.9V225.5z"/>
			<path class="st0" d="M373.9,213.1c2.7,2.7,4,5.9,4,9.7c0,3.8-1.3,7-4,9.7c-2.7,2.7-5.9,4-9.7,4c-3.8,0-7-1.3-9.7-4
				c-2.7-2.7-4-5.9-4-9.7c0-3.8,1.3-7,4-9.7c2.7-2.7,5.9-4,9.7-4C368,209,371.2,210.4,373.9,213.1z M364.2,213c-2.7,0-5,1-6.9,2.9
				c-1.9,1.9-2.9,4.2-2.9,6.9c0,2.7,1,5,2.9,6.9c1.9,1.9,4.2,2.9,6.9,2.9c2.7,0,5-1,6.9-2.9c1.9-1.9,2.9-4.2,2.9-6.9
				c0-2.7-1-5-2.9-6.9C369.2,213.9,366.9,213,364.2,213z"/>
			<path class="st0" d="M395.6,229.3c-0.5,0.1-1.1,0.1-1.6,0.1h-5.9v6.3h-3.9v-25.9h9.8c2.7,0,5,1,6.9,2.9c1.9,1.9,2.9,4.2,2.9,6.9
				c0,2.7-1,5-2.9,6.9c-0.5,0.5-1.1,1-1.7,1.3l3.9,7.8h-4.4L395.6,229.3z M388.1,225.5h5.9c1.6,0,3-0.6,4.1-1.7
				c1.1-1.1,1.7-2.5,1.7-4.2c0-1.6-0.6-3-1.7-4.1c-1.1-1.1-2.5-1.7-4.1-1.7h-5.9V225.5z"/>
			<path class="st0" d="M412.4,213.7h-7.1v-3.9h18v3.9h-7.1v21.9h-3.9V213.7z"/>
			<path class="st0" d="M442.9,231.8h-14.9l-1.8,3.9h-4.3l12.1-25.9h3l12.1,25.9h-4.4L442.9,231.8z M441.1,227.8l-5.6-11.9
				l-5.6,11.9H441.1z"/>
			<path class="st0" d="M454,209.8h3.9v21.9h11.8v3.9H454V209.8z"/>
			<path class="st0" d="M497.5,209.8c2.7,0,5,1,6.9,2.9c1.9,1.9,2.9,4.2,2.9,6.9c0,2.7-1,5-2.9,6.9c-1.9,1.9-4.2,2.9-6.9,2.9h-5.9
				v6.3h-3.9v-25.9H497.5z M491.6,225.5h5.9c1.6,0,3-0.6,4.1-1.7c1.1-1.1,1.7-2.5,1.7-4.2c0-1.6-0.6-3-1.7-4.1
				c-1.1-1.1-2.5-1.7-4.1-1.7h-5.9V225.5z"/>
			<path class="st0" d="M525,229.3c-0.5,0.1-1.1,0.1-1.6,0.1h-5.9v6.3h-3.9v-25.9h9.8c2.7,0,5,1,6.9,2.9c1.9,1.9,2.9,4.2,2.9,6.9
				c0,2.7-1,5-2.9,6.9c-0.5,0.5-1.1,1-1.7,1.3l3.9,7.8h-4.4L525,229.3z M517.4,225.5h5.9c1.6,0,3-0.6,4.1-1.7
				c1.1-1.1,1.7-2.5,1.7-4.2c0-1.6-0.6-3-1.7-4.1c-1.1-1.1-2.5-1.7-4.1-1.7h-5.9V225.5z"/>
			<path class="st0" d="M562,213.1c2.7,2.7,4,5.9,4,9.7c0,3.8-1.3,7-4,9.7c-2.7,2.7-5.9,4-9.7,4c-3.8,0-7-1.3-9.7-4
				c-2.7-2.7-4-5.9-4-9.7c0-3.8,1.3-7,4-9.7c2.7-2.7,5.9-4,9.7-4C556.1,209,559.3,210.4,562,213.1z M552.3,213c-2.7,0-5,1-6.9,2.9
				c-1.9,1.9-2.9,4.2-2.9,6.9c0,2.7,1,5,2.9,6.9c1.9,1.9,4.2,2.9,6.9,2.9c2.7,0,5-1,6.9-2.9c1.9-1.9,2.9-4.2,2.9-6.9
				c0-2.7-1-5-2.9-6.9C557.3,213.9,555,213,552.3,213z"/>
			<path class="st0" d="M592,213.6c2.5,2.5,3.8,5.6,3.8,9.1c0,3.6-1.3,6.6-3.8,9.2c-2.5,2.5-5.6,3.8-9.1,3.8h-10.6v-25.9h10.6
				C586.5,209.8,589.5,211.1,592,213.6z M582.9,213.7h-6.7v18h6.7c2.5,0,4.6-0.9,6.4-2.6c1.8-1.8,2.6-3.9,2.6-6.4
				c0-2.5-0.9-4.6-2.6-6.4C587.5,214.6,585.4,213.7,582.9,213.7z"/>
			<path class="st0" d="M601.3,225.9v-16h3.9v16c0,1.9,0.6,3.4,1.9,4.7c1.3,1.3,2.9,1.9,4.7,1.9c1.8,0,3.4-0.6,4.7-1.9
				c1.3-1.3,1.9-2.9,1.9-4.7v-16h3.9v16c0,2.9-1,5.4-3.1,7.5c-2.1,2.1-4.6,3.1-7.5,3.1c-2.9,0-5.4-1-7.5-3.1
				C602.3,231.3,601.3,228.8,601.3,225.9z"/>
			<path class="st0" d="M648.3,229.9l2.9,2.7c-2.7,2.6-5.8,3.9-9.6,3.9c-3.8,0-7-1.3-9.7-4c-2.7-2.7-4-5.9-4-9.7c0-3.8,1.3-7,4-9.7
				c2.7-2.7,5.9-4,9.7-4c3.8,0,7,1.3,9.7,4l-2.8,2.8c-1.9-1.9-4.2-2.9-6.9-2.9c-2.7,0-5,1-6.9,2.9c-1.9,1.9-2.9,4.2-2.9,6.9
				c0,2.7,1,5,2.9,6.9c1.9,1.9,4.2,2.9,6.9,2.9C644.2,232.5,646.5,231.7,648.3,229.9z"/>
			<path class="st0" d="M676.6,229.9l2.9,2.7c-2.7,2.6-5.8,3.9-9.6,3.9c-3.8,0-7-1.3-9.7-4c-2.7-2.7-4-5.9-4-9.7c0-3.8,1.3-7,4-9.7
				c2.7-2.7,5.9-4,9.7-4c3.8,0,7,1.3,9.7,4l-2.8,2.8c-1.9-1.9-4.2-2.9-6.9-2.9c-2.7,0-5,1-6.9,2.9c-1.9,1.9-2.9,4.2-2.9,6.9
				c0,2.7,1,5,2.9,6.9c1.9,1.9,4.2,2.9,6.9,2.9C672.4,232.5,674.7,231.7,676.6,229.9z"/>
			<path class="st0" d="M689.8,209.8v25.9h-3.9v-25.9H689.8z"/>
			<path class="st0" d="M719.5,213.1c2.7,2.7,4,5.9,4,9.7c0,3.8-1.3,7-4,9.7c-2.7,2.7-5.9,4-9.7,4c-3.8,0-7-1.3-9.7-4
				c-2.7-2.7-4-5.9-4-9.7c0-3.8,1.3-7,4-9.7s5.9-4,9.7-4C713.6,209,716.8,210.4,719.5,213.1z M709.8,213c-2.7,0-5,1-6.9,2.9
				c-1.9,1.9-2.9,4.2-2.9,6.9c0,2.7,1,5,2.9,6.9c1.9,1.9,4.2,2.9,6.9,2.9c2.7,0,5-1,6.9-2.9c1.9-1.9,2.9-4.2,2.9-6.9
				c0-2.7-1-5-2.9-6.9C714.8,213.9,712.5,213,709.8,213z M714.1,198.9l-2.5,7.1h-3.5l1.9-7.1H714.1z"/>
			<path class="st0" d="M746.2,227.4v-17.6h3.9v25.9h-2.6l-13.9-18.1v18.1h-3.9v-25.9h2.9L746.2,227.4z"/>
		</g>
	</g>
</g>
</svg>
